<mxfile host="app.diagrams.net" modified="2023-04-25T03:42:50.540Z" agent="Mozilla/5.0 (Windows NT 10.0; Win64; x64; rv:109.0) Gecko/20100101 Firefox/112.0" etag="4QKm8Sav_toBxhOi4k-k" version="21.2.1" type="github">
  <diagram name="第 1 页" id="vf8_G6BcD4Xjb9zB1YWy">
    <mxGraphModel dx="1050" dy="530" grid="1" gridSize="10" guides="1" tooltips="1" connect="1" arrows="1" fold="1" page="1" pageScale="1" pageWidth="827" pageHeight="1169" math="0" shadow="0">
      <root>
        <mxCell id="0" />
        <mxCell id="1" parent="0" />
        <mxCell id="SFir4FnT-DZvOQooUK_1-2" value="&lt;font style=&quot;font-size: 30px;&quot;&gt;醫生&lt;/font&gt;" style="rounded=0;whiteSpace=wrap;html=1;" vertex="1" parent="1">
          <mxGeometry x="354" y="130" width="120" height="60" as="geometry" />
        </mxCell>
        <mxCell id="SFir4FnT-DZvOQooUK_1-3" value="&lt;font style=&quot;font-size: 30px;&quot;&gt;病人&lt;/font&gt;" style="rounded=0;whiteSpace=wrap;html=1;" vertex="1" parent="1">
          <mxGeometry x="354" y="370" width="120" height="60" as="geometry" />
        </mxCell>
        <mxCell id="SFir4FnT-DZvOQooUK_1-4" value="" style="rhombus;whiteSpace=wrap;html=1;" vertex="1" parent="1">
          <mxGeometry x="374" y="230" width="80" height="80" as="geometry" />
        </mxCell>
        <mxCell id="SFir4FnT-DZvOQooUK_1-5" value="" style="endArrow=none;html=1;rounded=0;exitX=0.5;exitY=0;exitDx=0;exitDy=0;" edge="1" parent="1" source="SFir4FnT-DZvOQooUK_1-3">
          <mxGeometry width="50" height="50" relative="1" as="geometry">
            <mxPoint x="364" y="360" as="sourcePoint" />
            <mxPoint x="414" y="310" as="targetPoint" />
          </mxGeometry>
        </mxCell>
        <mxCell id="SFir4FnT-DZvOQooUK_1-6" value="" style="endArrow=none;html=1;rounded=0;entryX=0.5;entryY=1;entryDx=0;entryDy=0;exitX=0.5;exitY=0;exitDx=0;exitDy=0;" edge="1" parent="1" source="SFir4FnT-DZvOQooUK_1-4" target="SFir4FnT-DZvOQooUK_1-2">
          <mxGeometry width="50" height="50" relative="1" as="geometry">
            <mxPoint x="270" y="270" as="sourcePoint" />
            <mxPoint x="320" y="220" as="targetPoint" />
          </mxGeometry>
        </mxCell>
        <mxCell id="SFir4FnT-DZvOQooUK_1-9" value="" style="endArrow=none;html=1;rounded=0;entryX=0;entryY=0.5;entryDx=0;entryDy=0;" edge="1" parent="1" target="SFir4FnT-DZvOQooUK_1-3">
          <mxGeometry width="50" height="50" relative="1" as="geometry">
            <mxPoint x="250" y="400" as="sourcePoint" />
            <mxPoint x="320" y="380" as="targetPoint" />
          </mxGeometry>
        </mxCell>
        <mxCell id="SFir4FnT-DZvOQooUK_1-10" value="" style="endArrow=none;html=1;rounded=0;exitX=1;exitY=0.5;exitDx=0;exitDy=0;" edge="1" parent="1" source="SFir4FnT-DZvOQooUK_1-3">
          <mxGeometry width="50" height="50" relative="1" as="geometry">
            <mxPoint x="500" y="400" as="sourcePoint" />
            <mxPoint x="580" y="400" as="targetPoint" />
          </mxGeometry>
        </mxCell>
        <mxCell id="SFir4FnT-DZvOQooUK_1-11" value="" style="rhombus;whiteSpace=wrap;html=1;" vertex="1" parent="1">
          <mxGeometry x="170" y="360" width="80" height="80" as="geometry" />
        </mxCell>
        <mxCell id="SFir4FnT-DZvOQooUK_1-12" value="" style="rhombus;whiteSpace=wrap;html=1;" vertex="1" parent="1">
          <mxGeometry x="580" y="360" width="80" height="80" as="geometry" />
        </mxCell>
        <mxCell id="SFir4FnT-DZvOQooUK_1-13" value="" style="endArrow=none;html=1;rounded=0;exitX=1;exitY=0.5;exitDx=0;exitDy=0;entryX=0;entryY=0.5;entryDx=0;entryDy=0;" edge="1" parent="1" source="SFir4FnT-DZvOQooUK_1-15" target="SFir4FnT-DZvOQooUK_1-11">
          <mxGeometry width="50" height="50" relative="1" as="geometry">
            <mxPoint x="120" y="450" as="sourcePoint" />
            <mxPoint x="170" y="400" as="targetPoint" />
          </mxGeometry>
        </mxCell>
        <mxCell id="SFir4FnT-DZvOQooUK_1-14" value="" style="endArrow=none;html=1;rounded=0;entryX=0.008;entryY=0.633;entryDx=0;entryDy=0;entryPerimeter=0;exitX=1;exitY=0.5;exitDx=0;exitDy=0;" edge="1" parent="1" source="SFir4FnT-DZvOQooUK_1-12" target="SFir4FnT-DZvOQooUK_1-16">
          <mxGeometry width="50" height="50" relative="1" as="geometry">
            <mxPoint x="660" y="400" as="sourcePoint" />
            <mxPoint x="710" y="350" as="targetPoint" />
          </mxGeometry>
        </mxCell>
        <mxCell id="SFir4FnT-DZvOQooUK_1-15" value="&lt;font style=&quot;font-size: 30px;&quot;&gt;檢查&lt;/font&gt;" style="rounded=0;whiteSpace=wrap;html=1;strokeWidth=1;" vertex="1" parent="1">
          <mxGeometry x="20" y="260" width="120" height="60" as="geometry" />
        </mxCell>
        <mxCell id="SFir4FnT-DZvOQooUK_1-16" value="&lt;font style=&quot;font-size: 30px;&quot;&gt;測試&lt;/font&gt;" style="rounded=0;whiteSpace=wrap;html=1;" vertex="1" parent="1">
          <mxGeometry x="707" y="260" width="120" height="60" as="geometry" />
        </mxCell>
      </root>
    </mxGraphModel>
  </diagram>
</mxfile>
